<?xml version="1.0" standalone="no"?><!DOCTYPE svg PUBLIC "-//W3C//DTD SVG 1.1//EN" "http://www.w3.org/Graphics/SVG/1.1/DTD/svg11.dtd"><svg t="1763533913933" class="icon" viewBox="0 0 1024 1024" version="1.1" xmlns="http://www.w3.org/2000/svg" p-id="22033" xmlns:xlink="http://www.w3.org/1999/xlink" width="200" height="200"><path d="M512 0a512 512 0 1 1 0 1024A512 512 0 0 1 512 0z m251.776 384c-29.568 0-53.76 6.528-72.96 19.968-20.736 13.824-30.72 33.024-30.72 57.216s10.368 42.624 31.488 55.296c7.04 4.032 24.128 10.432 50.88 19.2l54.208 17.408c5.504 1.92 9.216 3.456 11.264 4.48 16.896 8.448 25.728 19.968 25.728 34.56 0 11.52-6.144 20.352-17.664 27.264-11.52 6.528-27.648 9.984-47.616 9.984-22.656 0-39.168-4.224-49.92-11.904-11.904-8.832-19.2-23.808-22.272-44.544h-44.544c1.92 34.944 14.592 60.288 37.632 76.416 18.816 13.056 45.312 19.584 79.104 19.584 34.944 0 62.208-7.296 81.408-21.12 19.2-14.208 28.8-33.792 28.8-58.368 0-25.344-11.904-44.928-35.712-59.136-8.064-4.608-23.488-10.944-46.4-18.688l-44.8-14.528a229.568 229.568 0 0 1-27.456-10.56c-13.056-6.912-19.2-16.512-19.2-28.032 0-13.056 5.376-22.656 16.896-28.416 9.216-4.992 22.272-7.296 39.552-7.296 19.968 0 35.328 3.456 45.312 11.136 9.984 7.296 17.28 19.584 21.12 36.48h44.544c-2.688-29.952-13.824-52.224-33.024-66.432-18.048-13.44-43.392-19.968-75.648-19.968z m-384.768 5.376H192v274.176h44.928V542.208h134.016v-38.4H236.928V427.776h142.08v-38.4z m150.144 0H415.488v274.176h44.928V558.336h67.968c66.816 0 100.224-28.416 100.224-84.864 0-56.064-33.408-84.096-99.456-84.096z m-3.456 38.4c19.584 0 34.176 3.456 43.392 10.752 9.216 6.912 14.208 18.432 14.208 34.944 0 16.512-4.608 28.416-13.824 35.712-9.216 6.912-23.808 10.752-43.776 10.752h-65.28v-92.16h65.28z" fill="#1296db" p-id="22034"></path></svg>