<?xml version="1.0" standalone="no"?><!DOCTYPE svg PUBLIC "-//W3C//DTD SVG 1.1//EN" "http://www.w3.org/Graphics/SVG/1.1/DTD/svg11.dtd"><svg t="1763533997144" class="icon" viewBox="0 0 1024 1024" version="1.1" xmlns="http://www.w3.org/2000/svg" p-id="24787" xmlns:xlink="http://www.w3.org/1999/xlink" width="200" height="200"><path d="M724.046769 636.908308a1217.969231 1217.969231 0 0 0 84.145231-105.156923c-37.966769-53.444923-83.593846-107.736615-136.073846-160.196923-51.574154-51.593846-105.767385-97.476923-160.039385-136.073847-53.425231 37.966769-107.736615 83.613538-160.196923 136.073847-52.440615 52.440615-98.067692 106.732308-136.034461 160.137846 37.966769 53.405538 83.574154 107.697231 136.014769 160.137846 52.460308 52.460308 106.771692 98.087385 160.196923 136.073846a1193.196308 1193.196308 0 0 0 78.395077-60.908308 98.461538 98.461538 0 0 1 133.592615-130.087384z m42.220308 41.412923a98.461538 98.461538 0 0 1-135.542154 131.977846 1286.144 1286.144 0 0 1-66.205538 52.598154c150.902154 94.208 287.153231 122.820923 344.339692 65.654154 57.166769-57.186462 28.553846-193.437538-65.634462-344.32a1305.875692 1305.875692 0 0 1-76.957538 94.089846zM240.64 49.506462a98.461538 98.461538 0 0 1 182.134154 62.011076 972.681846 972.681846 0 0 1 89.107692 52.263385c180.932923-119.059692 354.067692-155.372308 438.744616-70.715077 84.460308 84.440615 48.777846 257.181538-70.636308 438.626462 118.980923 180.893538 155.273846 353.969231 70.636308 438.626461-84.657231 84.637538-257.752615 48.344615-438.646154-70.656-181.917538 119.768615-354.284308 154.958769-438.587077 70.656C-11.264 885.661538 25.009231 712.585846 144.009846 531.692308 25.028923 350.798769-11.264 177.723077 73.373538 93.065846c38.912-38.912 97.024-52.775385 167.266462-43.559384z m-13.942154 57.816615c-50.353231-5.513846-88.241231 4.214154-111.556923 27.510154-57.166769 57.186462-28.553846 193.417846 65.614769 344.300307a1344.413538 1344.413538 0 0 1 129.339077-149.346461 1344.354462 1344.354462 0 0 1 149.444923-129.398154 890.269538 890.269538 0 0 0-60.809846-34.796308 98.461538 98.461538 0 0 1-172.032-58.269538z m616.566154 371.849846c94.523077-151.512615 122.289231-287.645538 65.575385-344.339692-57.166769-57.186462-193.457231-28.553846-344.359385 65.673846a1339.982769 1339.982769 0 0 1 149.425231 129.28 1344.393846 1344.393846 0 0 1 129.378461 149.385846zM180.775385 584.251077c-94.188308 150.882462-122.801231 287.113846-65.61477 344.280615 56.32 56.32 192.275692 29.282462 344.339693-65.575384a1344.393846 1344.393846 0 0 1-149.405539-129.35877 1344.433231 1344.433231 0 0 1-129.319384-149.346461zM324.923077 139.815385a39.384615 39.384615 0 1 0 0-78.769231 39.384615 39.384615 0 0 0 0 78.769231z m354.461538 624.246153a39.384615 39.384615 0 1 0 0-78.76923 39.384615 39.384615 0 0 0 0 78.76923z" fill="#1296db" p-id="24788"></path></svg>